# xmcd CD database file
#
# Track frame offsets:
#	150
#	21687
#	46653
#	66770
#	84596
#	107159
#	133645
#	154888
#	177700
#	199515
#	226840
#	249944
#	271254
#	298083
#
# Disc length: 4297 seconds
#
# Revision: 0
# Processed by: cddbd v1.5.2PL0 Copyright (c) Steve Scherf et al.
# Submitted via: CDex 1.51
#
DISCID=c510c70e
DTITLE=Santana - Multi-Dimensional Warrior CD DISC 2
DYEAR=2007
DGENRE=Blues
TTITLE0=Curación (Sunlight on Water)
TTITLE1=Aqua Marine
TTITLE2=Bella
TTITLE3=Lover Is You
TTITLE4=Full Moon
TTITLE5=Blues Latino
TTITLE6=Samba Pa Ti
TTITLE7=Europa
TTITLE8=El Farol
TTITLE9=En Aranjuez Con Tu Amor
TTITLE10=Luz, Amore y Vida
TTITLE11=I Love You Much Too Much
TTITLE12=Blues for Salvador
TTITLE13=Victory Is Won
EXTD=YEAR: 2007
EXTT0=
EXTT1=
EXTT2=
EXTT3=
EXTT4=
EXTT5=
EXTT6=
EXTT7=
EXTT8=
EXTT9=
EXTT10=
EXTT11=
EXTT12=
EXTT13=
PLAYORDER=
